<svg width="130" height="53" viewBox="0 0 130 53" fill="none" xmlns="http://www.w3.org/2000/svg">
<path d="M62.2786 6.46807C62.2786 5.87199 62.4734 5.37908 62.8746 4.98934C63.2758 4.59959 63.8261 4.40472 64.5139 4.40472C65.1902 4.40472 65.7404 4.59959 66.1416 4.98934C66.5428 5.37908 66.7491 5.87199 66.7491 6.46807C66.7491 7.07561 66.5428 7.56852 66.1301 7.95826C65.7175 8.348 65.1787 8.54287 64.5024 8.54287C63.8261 8.54287 63.2873 8.348 62.8746 7.95826C62.4849 7.57998 62.2786 7.07561 62.2786 6.46807ZM66.5199 25.2789H62.5193V10.3311H66.5199V25.2789Z" fill="white"/>
<path d="M68.801 17.7019C68.801 15.4093 69.3513 13.5637 70.4402 12.1652C71.5292 10.7667 72.9965 10.0675 74.8535 10.0675C76.4927 10.0675 77.7651 10.6292 78.6821 11.7526L78.8426 10.3426H82.4649V24.786C82.4649 26.0928 82.1669 27.2276 81.5708 28.202C80.9748 29.1649 80.138 29.91 79.0604 30.4144C77.9829 30.9187 76.722 31.1709 75.2776 31.1709C74.1772 31.1709 73.1111 30.9531 72.0794 30.5175C71.0363 30.0819 70.2568 29.5203 69.7181 28.821L71.4834 26.3908C72.4807 27.5028 73.6843 28.0645 75.1057 28.0645C76.1603 28.0645 76.9856 27.7779 77.5817 27.2162C78.1663 26.6545 78.4643 25.8521 78.4643 24.809V24.0065C77.5473 25.0497 76.3322 25.5655 74.8306 25.5655C73.0309 25.5655 71.5865 24.8663 70.4746 23.4563C69.3627 22.0578 68.8125 20.1894 68.8125 17.8738V17.7019H68.801ZM72.7902 17.9885C72.7902 19.3411 73.0653 20.4071 73.604 21.1752C74.1428 21.9432 74.8879 22.3329 75.8393 22.3329C77.0544 22.3329 77.9256 21.8744 78.4529 20.9688V14.6756C77.9141 13.7586 77.0544 13.3115 75.8737 13.3115C74.9108 13.3115 74.1657 13.7013 73.6155 14.4922C73.0653 15.2603 72.7902 16.4409 72.7902 17.9885Z" fill="white"/>
<path d="M88.7697 10.3312L88.8957 12.0621C89.9618 10.7324 91.3947 10.0561 93.1944 10.0561C94.7763 10.0561 95.957 10.5261 96.725 11.4546C97.493 12.3831 97.8942 13.7701 97.9171 15.6271V25.279H93.928V15.7188C93.928 14.8706 93.7446 14.263 93.3778 13.8733C93.011 13.495 92.392 13.3001 91.5437 13.3001C90.4203 13.3001 89.5835 13.7816 89.0218 14.733V25.2675H85.0327V10.3312H88.7697Z" fill="white"/>
<path d="M100.485 6.46807C100.485 5.87199 100.68 5.37908 101.081 4.98934C101.482 4.59959 102.032 4.40472 102.72 4.40472C103.396 4.40472 103.947 4.59959 104.348 4.98934C104.749 5.37908 104.955 5.87199 104.955 6.46807C104.955 7.07561 104.749 7.56852 104.336 7.95826C103.924 8.348 103.385 8.54287 102.709 8.54287C102.032 8.54287 101.494 8.348 101.081 7.95826C100.691 7.57998 100.485 7.07561 100.485 6.46807ZM104.726 25.2789H100.726V10.3311H104.726V25.2789Z" fill="white"/>
<path d="M112.372 6.66296V10.3311H114.928V13.2542H112.372V20.7166C112.372 21.2668 112.475 21.6681 112.693 21.9088C112.899 22.1495 113.312 22.2641 113.908 22.2641C114.355 22.2641 114.745 22.2297 115.077 22.1724V25.1987C114.298 25.4394 113.484 25.554 112.659 25.554C109.862 25.554 108.429 24.1441 108.383 21.3127V13.2657H106.205V10.3426H108.383V6.67443H112.372V6.66296Z" fill="white"/>
<path d="M123.594 25.554C121.405 25.554 119.617 24.8777 118.241 23.5365C116.866 22.1954 116.178 20.4071 116.178 18.1604V17.7706C116.178 16.269 116.464 14.9278 117.049 13.7471C117.634 12.5664 118.448 11.6494 119.514 11.0075C120.58 10.3655 121.795 10.0446 123.147 10.0446C125.188 10.0446 126.804 10.6865 127.973 11.9818C129.143 13.2657 129.739 15.0998 129.739 17.4611V19.0889H120.224C120.35 20.0632 120.74 20.8427 121.394 21.4388C122.047 22.0234 122.861 22.3214 123.858 22.3214C125.394 22.3214 126.598 21.7598 127.457 20.6478L129.418 22.8488C128.822 23.697 128.008 24.3619 126.987 24.8319C125.979 25.3133 124.844 25.554 123.594 25.554ZM123.147 13.2771C122.356 13.2771 121.714 13.5408 121.222 14.0795C120.729 14.6183 120.419 15.3863 120.27 16.3836H125.818V16.0626C125.795 15.18 125.566 14.4922 125.096 13.9993C124.638 13.5179 123.984 13.2771 123.147 13.2771Z" fill="white"/>
<path opacity="0.5" d="M52.0157 0.35129L39.286 47.8829C39.2212 48.0986 38.9623 48.1634 38.8113 48.0123L30.2888 39.4899L36.6753 15.6701C36.74 15.4544 36.5458 15.2602 36.3301 15.3249L12.5103 21.7114L4.03104 13.2321C3.88001 13.081 3.94474 12.8221 4.1605 12.7574L51.6705 0.00607603C51.8863 -0.0370757 52.0804 0.157107 52.0157 0.35129Z" fill="#00B37E"/>
<path opacity="0.5" d="M30.2885 39.49L27.009 51.7882C26.9442 52.004 26.6853 52.0687 26.5343 51.9177L0.0823113 25.4873C-0.0687196 25.3362 -0.00399244 25.0773 0.211766 25.0126L12.51 21.7115L30.2885 39.49Z" fill="#00B37E"/>
<path d="M36.6752 15.6699L30.2887 39.4897L12.5103 21.7112L36.33 15.3247C36.5457 15.26 36.7399 15.4542 36.6752 15.6699Z" fill="#00B37E"/>
<path d="M67.1881 46.6845C67.1881 46.4778 67.1421 46.2865 67.05 46.1108C66.963 45.9298 66.7814 45.767 66.5051 45.6223C66.2339 45.4724 65.8246 45.3431 65.2771 45.2346C64.8166 45.1364 64.3996 45.0201 64.0261 44.8857C63.6577 44.7513 63.3431 44.5884 63.0821 44.3972C62.8263 44.2059 62.6293 43.981 62.4912 43.7226C62.353 43.4641 62.284 43.1617 62.284 42.8154C62.284 42.4846 62.3556 42.1718 62.4989 41.8772C62.6472 41.5825 62.8545 41.3215 63.1205 41.094C63.3917 40.8666 63.7166 40.6882 64.0952 40.559C64.4738 40.4298 64.8959 40.3652 65.3615 40.3652C66.0267 40.3652 66.5946 40.4841 67.0653 40.7218C67.5361 40.9596 67.8968 41.2775 68.1475 41.6756C68.3982 42.0684 68.5235 42.5052 68.5235 42.986H67.1037C67.1037 42.7534 67.0346 42.5285 66.8965 42.3114C66.7635 42.0891 66.5665 41.9056 66.3055 41.7609C66.0497 41.6161 65.735 41.5438 65.3615 41.5438C64.9676 41.5438 64.6478 41.6058 64.4022 41.7298C64.1617 41.8487 63.9852 42.0012 63.8726 42.1873C63.7652 42.3734 63.7115 42.5698 63.7115 42.7766C63.7115 42.9317 63.7371 43.0713 63.7882 43.1953C63.8445 43.3142 63.9417 43.4254 64.0799 43.5287C64.218 43.627 64.4124 43.72 64.6631 43.8079C64.9139 43.8958 65.2336 43.9836 65.6225 44.0715C66.303 44.2266 66.8632 44.4127 67.3033 44.6298C67.7433 44.8469 68.0707 45.1131 68.2856 45.4284C68.5005 45.7438 68.608 46.1263 68.608 46.576C68.608 46.943 68.5312 47.279 68.3777 47.584C68.2293 47.889 68.0119 48.1526 67.7254 48.3749C67.444 48.592 67.1063 48.7626 66.7123 48.8866C66.3234 49.0055 65.886 49.065 65.3999 49.065C64.6683 49.065 64.0492 48.9332 63.5426 48.6695C63.0361 48.4059 62.6524 48.0647 62.3914 47.646C62.1305 47.2273 62 46.7853 62 46.3201H63.4275C63.448 46.713 63.5605 47.0257 63.7652 47.2583C63.9699 47.4858 64.2206 47.6486 64.5173 47.7468C64.8141 47.8399 65.1083 47.8864 65.3999 47.8864C65.7888 47.8864 66.1137 47.8347 66.3746 47.7313C66.6407 47.6279 66.8428 47.4858 66.9809 47.3049C67.1191 47.1239 67.1881 46.9172 67.1881 46.6845Z" fill="white"/>
<path d="M71.8928 37V48.9099H70.4729V37H71.8928ZM71.5551 44.3972L70.9641 44.3739C70.9692 43.8001 71.0537 43.2703 71.2174 42.7844C71.3811 42.2933 71.6114 41.8668 71.9081 41.505C72.2049 41.1431 72.5579 40.864 72.9672 40.6676C73.3817 40.466 73.8396 40.3652 74.341 40.3652C74.7503 40.3652 75.1187 40.422 75.4462 40.5358C75.7736 40.6443 76.0525 40.8201 76.2827 41.063C76.5181 41.306 76.6972 41.6213 76.82 42.009C76.9428 42.3915 77.0042 42.8593 77.0042 43.4124V48.9099H75.5766V43.3969C75.5766 42.9575 75.5127 42.606 75.3848 42.3424C75.2569 42.0736 75.0701 41.8798 74.8245 41.7609C74.5789 41.6368 74.2771 41.5748 73.9189 41.5748C73.5659 41.5748 73.2435 41.6497 72.9519 41.7996C72.6654 41.9495 72.4172 42.1563 72.2074 42.4199C72.0028 42.6836 71.8416 42.986 71.7239 43.3271C71.6114 43.6631 71.5551 44.0198 71.5551 44.3972Z" fill="white"/>
<path d="M78.754 44.8081V44.6298C78.754 44.025 78.841 43.4641 79.0149 42.9472C79.1889 42.4251 79.4396 41.9728 79.7671 41.5903C80.0945 41.2026 80.4911 40.9028 80.9567 40.6908C81.4223 40.4737 81.9441 40.3652 82.5223 40.3652C83.1056 40.3652 83.63 40.4737 84.0956 40.6908C84.5663 40.9028 84.9654 41.2026 85.2929 41.5903C85.6255 41.9728 85.8787 42.4251 86.0527 42.9472C86.2267 43.4641 86.3136 44.025 86.3136 44.6298V44.8081C86.3136 45.4129 86.2267 45.9738 86.0527 46.4907C85.8787 47.0076 85.6255 47.4599 85.2929 47.8476C84.9654 48.2301 84.5689 48.53 84.1033 48.7471C83.6428 48.959 83.1209 49.065 82.5377 49.065C81.9544 49.065 81.4299 48.959 80.9643 48.7471C80.4987 48.53 80.0996 48.2301 79.7671 47.8476C79.4396 47.4599 79.1889 47.0076 79.0149 46.4907C78.841 45.9738 78.754 45.4129 78.754 44.8081ZM80.1738 44.6298V44.8081C80.1738 45.2268 80.2224 45.6223 80.3197 45.9945C80.4169 46.3615 80.5627 46.6871 80.7571 46.9714C80.9567 47.2557 81.2048 47.4806 81.5016 47.646C81.7983 47.8063 82.1437 47.8864 82.5377 47.8864C82.9265 47.8864 83.2668 47.8063 83.5584 47.646C83.8552 47.4806 84.1007 47.2557 84.2952 46.9714C84.4896 46.6871 84.6354 46.3615 84.7326 45.9945C84.835 45.6223 84.8861 45.2268 84.8861 44.8081V44.6298C84.8861 44.2162 84.835 43.826 84.7326 43.459C84.6354 43.0868 84.487 42.7585 84.2875 42.4742C84.0931 42.1847 83.8475 41.9573 83.5507 41.7919C83.2591 41.6265 82.9163 41.5438 82.5223 41.5438C82.1335 41.5438 81.7906 41.6265 81.4939 41.7919C81.2022 41.9573 80.9567 42.1847 80.7571 42.4742C80.5627 42.7585 80.4169 43.0868 80.3197 43.459C80.2224 43.826 80.1738 44.2162 80.1738 44.6298Z" fill="white"/>
<path d="M89.514 42.133V52.1355H88.0865V40.5202H89.3912L89.514 42.133ZM95.1089 44.6453V44.8081C95.1089 45.4181 95.0373 45.9841 94.894 46.5062C94.7508 47.0231 94.541 47.4729 94.2647 47.8554C93.9935 48.2379 93.6584 48.5351 93.2593 48.7471C92.8602 48.959 92.4023 49.065 91.8855 49.065C91.3585 49.065 90.8929 48.9771 90.4887 48.8013C90.0845 48.6256 89.7417 48.3697 89.4603 48.0337C89.1789 47.6977 88.9538 47.2945 88.7849 46.8241C88.6212 46.3537 88.5086 45.8239 88.4472 45.2346V44.3662C88.5086 43.7458 88.6237 43.1902 88.7926 42.6991C88.9614 42.208 89.184 41.7893 89.4603 41.443C89.7417 41.0914 90.0819 40.8252 90.481 40.6443C90.8801 40.4582 91.3406 40.3652 91.8625 40.3652C92.3844 40.3652 92.8474 40.4686 93.2516 40.6753C93.6558 40.8769 93.9961 41.1664 94.2724 41.5438C94.5487 41.9211 94.7559 42.3734 94.894 42.9007C95.0373 43.4228 95.1089 44.0043 95.1089 44.6453ZM93.6814 44.8081V44.6453C93.6814 44.2266 93.6379 43.8337 93.5509 43.4667C93.464 43.0945 93.3284 42.7689 93.1442 42.4897C92.9651 42.2054 92.7348 41.9831 92.4534 41.8229C92.172 41.6575 91.8369 41.5748 91.448 41.5748C91.0899 41.5748 90.7778 41.6368 90.5117 41.7609C90.2508 41.8849 90.0282 42.0529 89.844 42.2649C89.6598 42.4716 89.5089 42.7094 89.3912 42.9782C89.2787 43.2418 89.1942 43.5158 89.1379 43.8001V45.8084C89.2403 46.1702 89.3835 46.5114 89.5677 46.8319C89.7519 47.1472 89.9975 47.4031 90.3045 47.5995C90.6115 47.7908 90.9978 47.8864 91.4634 47.8864C91.8471 47.8864 92.1772 47.8063 92.4534 47.646C92.7348 47.4806 92.9651 47.2557 93.1442 46.9714C93.3284 46.6871 93.464 46.3615 93.5509 45.9945C93.6379 45.6223 93.6814 45.2268 93.6814 44.8081Z" fill="white"/>
</svg>
